<svg width="57" height="56" viewBox="0 0 57 56" fill="none" xmlns="http://www.w3.org/2000/svg">
<rect width="56" height="56" transform="translate(0.5)" fill="white"/>
<path d="M47.3516 35.001L47.6718 35.2048C47.5701 35.1294 47.4631 35.0613 47.3516 35.001Z" fill="#2F6FB3"/>
<path d="M53.2182 40.306V26.7637C53.2214 26.7102 53.2214 26.6566 53.2182 26.6032C53.1805 25.9822 52.9761 25.3824 52.626 24.8654C52.276 24.3485 51.7929 23.9332 51.2266 23.6622L37.3905 16.0712C36.9538 15.8194 36.4885 15.62 36.0042 15.4769C34.5687 15.049 33.0237 15.1631 31.6684 15.797C30.3131 16.4309 29.2439 17.5395 28.6678 18.9082C28.0918 20.2769 28.0498 21.8083 28.5501 23.2058C29.0505 24.6033 30.0574 25.7675 31.3761 26.473L47.3486 35.0183C47.4602 35.0786 47.5672 35.1468 47.6689 35.2222C48.6691 35.8555 51.8188 38.0114 53.2182 40.306Z" fill="#2F6FB3"/>
<path d="M47.6726 35.2051C47.9819 35.4255 48.238 35.7111 48.4223 36.0411C48.6066 36.3711 48.7147 36.7374 48.7387 37.1137C48.7737 37.8315 48.609 38.5451 48.2625 39.1768C47.916 39.8085 47.4009 40.3342 46.7733 40.6966L30.2437 50.1529C29.7347 50.4429 29.1575 50.5956 28.5701 50.5956C27.9826 50.5956 27.4055 50.4429 26.8965 50.1529L5.47987 37.8554C4.87068 37.5041 4.36777 36.9978 4.02344 36.3893V41.0306C4.12778 41.5502 4.34296 42.0418 4.65462 42.4726C4.96628 42.9035 5.36726 43.2637 5.83082 43.5292L26.6684 55.5013C27.1725 55.7882 27.7368 55.9563 28.3173 55.9924C28.8979 56.0285 29.479 55.9317 30.0156 55.7095C30.1775 55.6443 30.3344 55.5674 30.4849 55.4796L51.3444 43.5465C51.9181 43.2175 52.3937 42.7447 52.7234 42.1758C53.0531 41.6068 53.2251 40.9619 53.222 40.3062C51.8226 38.0116 48.6728 35.8557 47.6726 35.2051Z" fill="#2F6FB3"/>
<path d="M9.89055 20.8425C9.89055 20.8425 9.76772 20.7688 9.57031 20.6387C9.66986 20.7171 9.77715 20.7854 9.89055 20.8425Z" fill="#2F6FB3"/>
<path d="M9.86712 20.9992L9.54688 20.7954C9.64856 20.8708 9.75558 20.9389 9.86712 20.9992Z" fill="#2F6FB3"/>
<path d="M4 15.6938V29.2362C4 29.2362 4 29.2969 4 29.3967C4.03774 30.0177 4.24216 30.6175 4.59221 31.1344C4.94227 31.6514 5.42532 32.0667 5.99163 32.3377L19.8278 39.9287C20.2663 40.1797 20.733 40.3791 21.2184 40.523C22.6563 40.9602 24.2074 40.852 25.569 40.2195C26.9306 39.587 28.005 38.4755 28.5825 37.102C29.1601 35.7285 29.1993 34.1914 28.6927 32.7908C28.186 31.3902 27.1697 30.2265 25.8422 29.5268L9.86961 20.9815C9.75808 20.9212 9.65106 20.8531 9.54937 20.7777C8.54917 20.1444 5.39941 17.9885 4 15.6938Z" fill="#2F6FB3"/>
<path d="M9.54749 20.7947C9.23944 20.5734 8.98458 20.2876 8.80108 19.9577C8.61757 19.6278 8.50994 19.2619 8.48587 18.8861C8.44786 18.1678 8.61128 17.4531 8.95808 16.8209C9.30488 16.1886 9.82159 15.6634 10.4512 15.3032L26.9808 5.84693C27.4892 5.55725 28.0655 5.40476 28.6522 5.40476C29.2389 5.40476 29.8153 5.55725 30.3236 5.84693L51.7403 18.1487C52.3494 18.5 52.8524 19.0063 53.1967 19.6149V14.9735C53.0926 14.4544 52.878 13.9632 52.5671 13.5324C52.2563 13.1016 51.8563 12.7411 51.3937 12.475L30.5561 0.502851C30.052 0.215927 29.4877 0.0478847 28.9072 0.0117723C28.3266 -0.02434 27.7455 0.0724594 27.209 0.294648C27.0452 0.358963 26.8868 0.435829 26.7352 0.524547L5.89324 12.4533C5.31962 12.7823 4.84395 13.2551 4.51428 13.824C4.18461 14.393 4.01262 15.0379 4.01566 15.6936C5.39752 17.9882 8.54729 20.1441 9.54749 20.7947Z" fill="#2F6FB3"/>
</svg>
